# xmcd CD database file
#
# Track frame offsets:
#	150
#	11497
#	27402
#	49338
#	63234
#	80785
#	98541
#	112416
#	133773
#	153035
#
# Disc length: 2232 seconds
#
# Revision: 0
# Processed by: cddbd v1.5.1PL2 Copyright (c) Steve Scherf et al.
# Submitted via: CDex 1.51
#
DISCID=8008b60a
DTITLE=谷村新司 - JADE -翡翠-
DYEAR=1982
DGENRE=JPop
TTITLE0=JADE -翡翠-
TTITLE1=RESISTANCE -ピアニストは撃たないで-
TTITLE2=スーパースター -MY SUPERSTAR-
TTITLE3=シェヘラザード
TTITLE4=心の痛み -NOBODY IN MY HEART-
TTITLE5=ファイアフライ -蛍-
TTITLE6=雨の森 -RAINY WOOD-
TTITLE7=愛・地獄篇
TTITLE8=少年の墓
TTITLE9=JADE -翡翠-
EXTD=YEAR: 1982
EXTT0=
EXTT1=
EXTT2=
EXTT3=
EXTT4=
EXTT5=
EXTT6=
EXTT7=
EXTT8=
EXTT9=
PLAYORDER=
